# xmcd
#
# Track frame offsets: 
#        182
#        16955
#        35780
#        47902
#        61597
#        77292
#        94882
#        109135
#        125647
#        140450
#        153800
#        170957
#
# Disc length: 2484 seconds
#
# Revision: 1
# Processed by: cddbd v1.5.2PL0 Copyright (c) Steve Scherf et al.
# Submitted via: ExactAudioCopy v0.99pb5
#
DISCID=9b09b20c
DTITLE=Randy Travis - Inspirational Journey
DYEAR=1900
DGENRE=
TTITLE0=Shallow Water
TTITLE1=Baptism
TTITLE2=Which Way Will You Choose
TTITLE3=Doctor Jesus
TTITLE4=Drive Another Nail
TTITLE5=See Myself In You
TTITLE6=Feet On the Rock
TTITLE7=Don't Ever Sell Your Saddle
TTITLE8=The Carpenter
TTITLE9=Walk with Me
TTITLE10=I am Going
TTITLE11=Amazing Grace
EXTD=
EXTT0=
EXTT1=
EXTT2=
EXTT3=
EXTT4=
EXTT5=
EXTT6=
EXTT7=
EXTT8=
EXTT9=
EXTT10=
EXTT11=
PLAYORDER=
